<svg width="109" height="118" viewBox="0 0 109 118" fill="none" xmlns="http://www.w3.org/2000/svg">
<path d="M60.8126 44.2448H60.4508C58.9688 44.2448 57.7673 45.4402 57.7673 46.9148V70.5448C57.7673 72.0194 58.9688 73.2148 60.4508 73.2148H60.8126C62.2946 73.2148 63.4961 72.0194 63.4961 70.5448V46.9148C63.4961 45.4402 62.2946 44.2448 60.8126 44.2448Z" fill="#F2C261"/>
<path d="M52.5713 39.6048H52.2095C50.7275 39.6048 49.5261 40.8002 49.5261 42.2748V75.1848C49.5261 76.6594 50.7275 77.8548 52.2095 77.8548H52.5713C54.0534 77.8548 55.2548 76.6594 55.2548 75.1848V42.2748C55.2548 40.8002 54.0534 39.6048 52.5713 39.6048Z" fill="#F2C261"/>
<path d="M69.0641 49.7048H68.7023C67.2202 49.7048 66.0188 50.9002 66.0188 52.3748V65.0748C66.0188 66.5494 67.2202 67.7448 68.7023 67.7448H69.0641C70.5461 67.7448 71.7475 66.5494 71.7475 65.0748V52.3748C71.7475 50.9002 70.5461 49.7048 69.0641 49.7048Z" fill="#F2C261"/>
<path d="M44.32 48.2448H43.9582C42.4761 48.2448 41.2747 49.4402 41.2747 50.9148V66.5248C41.2747 67.9994 42.4761 69.1948 43.9582 69.1948H44.32C45.802 69.1948 47.0034 67.9994 47.0034 66.5248V50.9148C47.0034 49.4402 45.802 48.2448 44.32 48.2448Z" fill="#F2C261"/>
<path d="M92.3006 77.7848C93.1247 79.2148 93.1247 80.9148 92.3006 82.3348C89.396 87.2748 85.4965 91.3647 80.7225 94.4847C74.0792 98.8047 66.059 101.005 56.893 101.005C49.3049 101.005 42.3199 99.1848 36.159 95.6148C35.9681 96.0748 35.5861 96.4447 35.0434 96.5947L26.4905 98.9648L17.9979 101.605C16.7718 101.985 15.6964 100.905 16.0783 99.6948L18.7417 91.2448L21.1236 82.7347C21.2643 82.2148 21.6362 81.8347 22.0784 81.6348C21.8673 81.2848 21.6663 80.9448 21.4653 80.5848C17.9075 74.2048 16.0984 66.8648 16.0984 58.7748C16.0984 50.6848 17.9075 43.3148 21.4653 36.9048C23.2442 33.7048 25.3749 30.8348 27.8172 28.3048C30.2695 25.7848 33.0434 23.6248 36.1389 21.8348C42.3199 18.2548 49.2949 16.4348 56.883 16.4348C66.1293 16.4348 74.1697 18.6448 80.7828 23.0148C85.5467 26.1748 89.4362 30.3148 92.3307 35.3348C93.1549 36.7648 93.1549 38.4648 92.3307 39.8948C91.4966 41.3248 90.0091 42.1648 88.3608 42.1648H87.8583C86.1397 42.1648 84.5718 41.1948 83.7577 39.6348C81.4763 35.2548 78.2602 31.7048 74.1898 29.0648C69.446 25.9948 63.6167 24.4348 56.893 24.4348C50.9432 24.4348 45.5159 25.8448 40.7621 28.6048C36.0183 31.3648 32.2394 35.3948 29.5358 40.5948C26.8322 45.7948 25.4553 51.9048 25.4553 58.7748C25.4553 65.6448 26.8322 71.7448 29.5358 76.8948C32.2394 82.0448 36.0183 86.0648 40.7621 88.8248C45.5159 91.5848 50.9432 92.9847 56.893 92.9847C63.6268 92.9847 69.4359 91.4447 74.1898 88.4147C78.2602 85.8248 81.4763 82.3148 83.7577 77.9948C84.5718 76.4548 86.1397 75.4948 87.8282 75.4948H88.3508C90.0091 75.4948 91.4865 76.3447 92.3106 77.7747L92.3006 77.7848Z" fill="#F2C261"/>
<path d="M60.8126 44.2448H60.4508C58.9688 44.2448 57.7673 45.4402 57.7673 46.9148V70.5448C57.7673 72.0194 58.9688 73.2148 60.4508 73.2148H60.8126C62.2946 73.2148 63.4961 72.0194 63.4961 70.5448V46.9148C63.4961 45.4402 62.2946 44.2448 60.8126 44.2448Z" stroke="#F2C261" stroke-miterlimit="10"/>
<path d="M52.5713 39.6048H52.2095C50.7275 39.6048 49.5261 40.8002 49.5261 42.2748V75.1848C49.5261 76.6594 50.7275 77.8548 52.2095 77.8548H52.5713C54.0534 77.8548 55.2548 76.6594 55.2548 75.1848V42.2748C55.2548 40.8002 54.0534 39.6048 52.5713 39.6048Z" stroke="#F2C261" stroke-miterlimit="10"/>
<path d="M69.0641 49.7048H68.7023C67.2202 49.7048 66.0188 50.9002 66.0188 52.3748V65.0748C66.0188 66.5494 67.2202 67.7448 68.7023 67.7448H69.0641C70.5461 67.7448 71.7475 66.5494 71.7475 65.0748V52.3748C71.7475 50.9002 70.5461 49.7048 69.0641 49.7048Z" stroke="#F2C261" stroke-miterlimit="10"/>
<path d="M44.32 48.2448H43.9582C42.4761 48.2448 41.2747 49.4402 41.2747 50.9148V66.5248C41.2747 67.9994 42.4761 69.1948 43.9582 69.1948H44.32C45.802 69.1948 47.0034 67.9994 47.0034 66.5248V50.9148C47.0034 49.4402 45.802 48.2448 44.32 48.2448Z" stroke="#F2C261" stroke-miterlimit="10"/>
<path d="M92.3006 77.7848C93.1247 79.2148 93.1247 80.9148 92.3006 82.3348C89.396 87.2748 85.4965 91.3647 80.7225 94.4847C74.0792 98.8047 66.059 101.005 56.893 101.005C49.3049 101.005 42.3199 99.1848 36.159 95.6148C35.9681 96.0748 35.5861 96.4447 35.0434 96.5947L26.4905 98.9648L17.9979 101.605C16.7718 101.985 15.6964 100.905 16.0783 99.6948L18.7417 91.2448L21.1236 82.7347C21.2643 82.2148 21.6362 81.8347 22.0784 81.6348C21.8673 81.2848 21.6663 80.9448 21.4653 80.5848C17.9075 74.2048 16.0984 66.8648 16.0984 58.7748C16.0984 50.6848 17.9075 43.3148 21.4653 36.9048C23.2442 33.7048 25.3749 30.8348 27.8172 28.3048C30.2695 25.7848 33.0434 23.6248 36.1389 21.8348C42.3199 18.2548 49.2949 16.4348 56.883 16.4348C66.1293 16.4348 74.1697 18.6448 80.7828 23.0148C85.5467 26.1748 89.4362 30.3148 92.3307 35.3348C93.1549 36.7648 93.1549 38.4648 92.3307 39.8948C91.4966 41.3248 90.0091 42.1648 88.3608 42.1648H87.8583C86.1397 42.1648 84.5718 41.1948 83.7577 39.6348C81.4763 35.2548 78.2602 31.7048 74.1898 29.0648C69.446 25.9948 63.6167 24.4348 56.893 24.4348C50.9432 24.4348 45.5159 25.8448 40.7621 28.6048C36.0183 31.3648 32.2394 35.3948 29.5358 40.5948C26.8322 45.7948 25.4553 51.9048 25.4553 58.7748C25.4553 65.6448 26.8322 71.7448 29.5358 76.8948C32.2394 82.0448 36.0183 86.0648 40.7621 88.8248C45.5159 91.5848 50.9432 92.9847 56.893 92.9847C63.6268 92.9847 69.4359 91.4447 74.1898 88.4147C78.2602 85.8248 81.4763 82.3148 83.7577 77.9948C84.5718 76.4548 86.1397 75.4948 87.8282 75.4948H88.3508C90.0091 75.4948 91.4865 76.3447 92.3106 77.7747L92.3006 77.7848Z" stroke="#F2C261" stroke-miterlimit="10"/>
</svg>
