<svg width="447" height="118" viewBox="0 0 447 118" fill="none" xmlns="http://www.w3.org/2000/svg">
<path d="M123.025 101.1C121.638 101.1 120.452 100.61 119.467 99.63C118.482 98.65 117.989 97.43 117.989 95.98V21.12C117.989 19.67 118.482 18.45 119.467 17.47C120.452 16.49 121.638 16 123.025 16C124.482 16 125.708 16.49 126.693 17.47C127.678 18.45 128.17 19.67 128.17 21.12V91.08H169.126C170.513 91.08 171.719 91.55 172.744 92.5C173.769 93.44 174.282 94.64 174.282 96.1C174.282 97.56 173.769 98.66 172.744 99.64C171.719 100.62 170.513 101.11 169.126 101.11H123.015L123.025 101.1Z" fill="#F2C261"/>
<path d="M194.222 101.31C192.322 101.31 190.895 100.51 189.95 98.91C189.005 97.31 188.925 95.64 189.729 93.9L221.046 19.69C221.991 17.37 223.599 16.2 225.86 16.2C228.272 16.2 229.911 17.36 230.785 19.69L262.213 94.12C262.946 95.86 262.816 97.5 261.831 99.02C260.846 100.55 259.398 101.31 257.509 101.31C256.564 101.31 255.65 101.04 254.775 100.49C253.901 99.95 253.238 99.17 252.805 98.15L224.443 28.85H227.619L199.036 98.15C198.593 99.24 197.94 100.04 197.066 100.55C196.191 101.06 195.237 101.31 194.222 101.31ZM200.573 82.03L204.624 73.4199H248.102L252.042 82.03H200.563H200.573Z" fill="#F2C261"/>
<path d="M283.69 101.31C282.233 101.31 281.007 100.82 280.022 99.84C279.037 98.86 278.545 97.64 278.545 96.19V21.33C278.545 19.8 279.037 18.57 280.022 17.63C281.007 16.69 282.233 16.21 283.69 16.21H303.731C309.138 16.21 313.932 17.34 318.133 19.59C322.334 21.84 325.621 24.97 327.993 28.96C330.364 32.96 331.55 37.57 331.55 42.8C331.55 47.74 330.364 52.14 327.993 55.99C325.621 59.84 322.334 62.85 318.133 65.03C313.932 67.21 309.138 68.3 303.731 68.3H288.836V96.2C288.836 97.65 288.364 98.87 287.409 99.85C286.464 100.83 285.218 101.32 283.69 101.32V101.31ZM288.836 58.71H303.731C307.238 58.71 310.314 58.04 312.987 56.69C315.651 55.35 317.751 53.46 319.289 51.02C320.827 48.59 321.59 45.84 321.59 42.79C321.59 39.45 320.827 36.49 319.289 33.91C317.751 31.33 315.661 29.33 312.987 27.92C310.324 26.5 307.238 25.8 303.731 25.8H288.836V58.71ZM329.249 101.31C328.304 101.31 327.46 101.11 326.726 100.71C325.993 100.31 325.339 99.67 324.756 98.8L304.605 66.55L314.686 63.72L333.309 93.47C334.545 95.43 334.736 97.23 333.852 98.86C332.978 100.49 331.44 101.31 329.249 101.31Z" fill="#F2C261"/>
<path d="M354.304 101.31C352.405 101.31 350.978 100.51 350.033 98.91C349.088 97.31 349.008 95.64 349.812 93.9L381.139 19.69C382.084 17.37 383.692 16.2 385.953 16.2C388.365 16.2 390.004 17.36 390.878 19.69L422.306 94.12C423.039 95.86 422.909 97.5 421.924 99.02C420.939 100.55 419.491 101.31 417.602 101.31C416.647 101.31 415.743 101.04 414.868 100.49C413.994 99.94 413.331 99.17 412.898 98.15L384.536 28.85H387.712L359.129 98.15C358.686 99.24 358.033 100.04 357.159 100.55C356.284 101.06 355.33 101.31 354.314 101.31H354.304ZM360.656 82.03L364.707 73.4199H408.185L412.124 82.03H360.646H360.656Z" fill="#F2C261"/>
<path d="M68.8126 44.28H68.4508C66.9688 44.28 65.7673 45.4754 65.7673 46.95V70.58C65.7673 72.0546 66.9688 73.25 68.4508 73.25H68.8126C70.2946 73.25 71.4961 72.0546 71.4961 70.58V46.95C71.4961 45.4754 70.2946 44.28 68.8126 44.28Z" fill="#F2C261"/>
<path d="M60.5713 39.64H60.2095C58.7275 39.64 57.5261 40.8354 57.5261 42.31V75.22C57.5261 76.6946 58.7275 77.89 60.2095 77.89H60.5713C62.0534 77.89 63.2548 76.6946 63.2548 75.22V42.31C63.2548 40.8354 62.0534 39.64 60.5713 39.64Z" fill="#F2C261"/>
<path d="M77.0641 49.74H76.7023C75.2202 49.74 74.0188 50.9354 74.0188 52.41V65.11C74.0188 66.5846 75.2202 67.78 76.7023 67.78H77.0641C78.5461 67.78 79.7475 66.5846 79.7475 65.11V52.41C79.7475 50.9354 78.5461 49.74 77.0641 49.74Z" fill="#F2C261"/>
<path d="M52.32 48.28H51.9582C50.4761 48.28 49.2747 49.4754 49.2747 50.95V66.56C49.2747 68.0346 50.4761 69.23 51.9582 69.23H52.32C53.802 69.23 55.0034 68.0346 55.0034 66.56V50.95C55.0034 49.4754 53.802 48.28 52.32 48.28Z" fill="#F2C261"/>
<path d="M100.301 77.82C101.125 79.25 101.125 80.95 100.301 82.37C97.396 87.31 93.4965 91.4 88.7225 94.52C82.0792 98.84 74.059 101.04 64.893 101.04C57.3049 101.04 50.3199 99.22 44.159 95.65C43.9681 96.11 43.5861 96.48 43.0434 96.63L34.4905 99L25.9979 101.64C24.7718 102.02 23.6964 100.94 24.0783 99.73L26.7417 91.28L29.1236 82.77C29.2643 82.25 29.6362 81.87 30.0784 81.67C29.8673 81.32 29.6663 80.98 29.4653 80.62C25.9075 74.24 24.0984 66.9 24.0984 58.81C24.0984 50.72 25.9075 43.35 29.4653 36.94C31.2442 33.74 33.3749 30.87 35.8172 28.34C38.2695 25.82 41.0434 23.66 44.1389 21.87C50.3199 18.29 57.2949 16.47 64.883 16.47C74.1293 16.47 82.1697 18.68 88.7828 23.05C93.5467 26.21 97.4362 30.35 100.331 35.37C101.155 36.8 101.155 38.5 100.331 39.93C99.4966 41.36 98.0091 42.2 96.3608 42.2H95.8583C94.1397 42.2 92.5718 41.23 91.7577 39.67C89.4763 35.29 86.2602 31.74 82.1898 29.1C77.446 26.03 71.6167 24.47 64.893 24.47C58.9432 24.47 53.5159 25.88 48.7621 28.64C44.0183 31.4 40.2394 35.43 37.5358 40.63C34.8322 45.83 33.4553 51.94 33.4553 58.81C33.4553 65.68 34.8322 71.78 37.5358 76.93C40.2394 82.08 44.0183 86.1 48.7621 88.86C53.5159 91.62 58.9432 93.02 64.893 93.02C71.6268 93.02 77.4359 91.48 82.1898 88.45C86.2602 85.86 89.4763 82.35 91.7577 78.03C92.5718 76.49 94.1397 75.53 95.8282 75.53H96.3508C98.0091 75.53 99.4865 76.38 100.311 77.81L100.301 77.82Z" fill="#F2C261"/>
<path d="M123.025 101.1C121.638 101.1 120.452 100.61 119.467 99.63C118.482 98.65 117.989 97.43 117.989 95.98V21.12C117.989 19.67 118.482 18.45 119.467 17.47C120.452 16.49 121.638 16 123.025 16C124.482 16 125.708 16.49 126.693 17.47C127.678 18.45 128.17 19.67 128.17 21.12V91.08H169.126C170.513 91.08 171.719 91.55 172.744 92.5C173.769 93.44 174.282 94.64 174.282 96.1C174.282 97.56 173.769 98.66 172.744 99.64C171.719 100.62 170.513 101.11 169.126 101.11H123.015L123.025 101.1Z" stroke="#F2C261" stroke-miterlimit="10"/>
<path d="M194.222 101.31C192.322 101.31 190.895 100.51 189.95 98.91C189.005 97.31 188.925 95.64 189.729 93.9L221.046 19.69C221.991 17.37 223.599 16.2 225.86 16.2C228.272 16.2 229.911 17.36 230.785 19.69L262.213 94.12C262.946 95.86 262.816 97.5 261.831 99.02C260.846 100.55 259.398 101.31 257.509 101.31C256.564 101.31 255.65 101.04 254.775 100.49C253.901 99.95 253.238 99.17 252.805 98.15L224.443 28.85H227.619L199.036 98.15C198.593 99.24 197.94 100.04 197.066 100.55C196.191 101.06 195.237 101.31 194.222 101.31ZM200.573 82.03L204.624 73.4199H248.102L252.042 82.03H200.563H200.573Z" stroke="#F2C261" stroke-miterlimit="10"/>
<path d="M283.69 101.31C282.233 101.31 281.007 100.82 280.022 99.84C279.037 98.86 278.545 97.64 278.545 96.19V21.33C278.545 19.8 279.037 18.57 280.022 17.63C281.007 16.69 282.233 16.21 283.69 16.21H303.731C309.138 16.21 313.932 17.34 318.133 19.59C322.334 21.84 325.621 24.97 327.993 28.96C330.364 32.96 331.55 37.57 331.55 42.8C331.55 47.74 330.364 52.14 327.993 55.99C325.621 59.84 322.334 62.85 318.133 65.03C313.932 67.21 309.138 68.3 303.731 68.3H288.836V96.2C288.836 97.65 288.364 98.87 287.409 99.85C286.464 100.83 285.218 101.32 283.69 101.32V101.31ZM288.836 58.71H303.731C307.238 58.71 310.314 58.04 312.987 56.69C315.651 55.35 317.751 53.46 319.289 51.02C320.827 48.59 321.59 45.84 321.59 42.79C321.59 39.45 320.827 36.49 319.289 33.91C317.751 31.33 315.661 29.33 312.987 27.92C310.324 26.5 307.238 25.8 303.731 25.8H288.836V58.71ZM329.249 101.31C328.304 101.31 327.46 101.11 326.726 100.71C325.993 100.31 325.339 99.67 324.756 98.8L304.605 66.55L314.686 63.72L333.309 93.47C334.545 95.43 334.736 97.23 333.852 98.86C332.978 100.49 331.44 101.31 329.249 101.31Z" stroke="#F2C261" stroke-miterlimit="10"/>
<path d="M354.304 101.31C352.405 101.31 350.978 100.51 350.033 98.91C349.088 97.31 349.008 95.64 349.812 93.9L381.139 19.69C382.084 17.37 383.692 16.2 385.953 16.2C388.365 16.2 390.004 17.36 390.878 19.69L422.306 94.12C423.039 95.86 422.909 97.5 421.924 99.02C420.939 100.55 419.491 101.31 417.602 101.31C416.647 101.31 415.743 101.04 414.868 100.49C413.994 99.94 413.331 99.17 412.898 98.15L384.536 28.85H387.712L359.129 98.15C358.686 99.24 358.033 100.04 357.159 100.55C356.284 101.06 355.33 101.31 354.314 101.31H354.304ZM360.656 82.03L364.707 73.4199H408.185L412.124 82.03H360.646H360.656Z" stroke="#F2C261" stroke-miterlimit="10"/>
<path d="M68.8126 44.28H68.4508C66.9688 44.28 65.7673 45.4754 65.7673 46.95V70.58C65.7673 72.0546 66.9688 73.25 68.4508 73.25H68.8126C70.2946 73.25 71.4961 72.0546 71.4961 70.58V46.95C71.4961 45.4754 70.2946 44.28 68.8126 44.28Z" stroke="#F2C261" stroke-miterlimit="10"/>
<path d="M60.5713 39.64H60.2095C58.7275 39.64 57.5261 40.8354 57.5261 42.31V75.22C57.5261 76.6946 58.7275 77.89 60.2095 77.89H60.5713C62.0534 77.89 63.2548 76.6946 63.2548 75.22V42.31C63.2548 40.8354 62.0534 39.64 60.5713 39.64Z" stroke="#F2C261" stroke-miterlimit="10"/>
<path d="M77.0641 49.74H76.7023C75.2202 49.74 74.0188 50.9354 74.0188 52.41V65.11C74.0188 66.5846 75.2202 67.78 76.7023 67.78H77.0641C78.5461 67.78 79.7475 66.5846 79.7475 65.11V52.41C79.7475 50.9354 78.5461 49.74 77.0641 49.74Z" stroke="#F2C261" stroke-miterlimit="10"/>
<path d="M52.32 48.28H51.9582C50.4761 48.28 49.2747 49.4754 49.2747 50.95V66.56C49.2747 68.0346 50.4761 69.23 51.9582 69.23H52.32C53.802 69.23 55.0034 68.0346 55.0034 66.56V50.95C55.0034 49.4754 53.802 48.28 52.32 48.28Z" stroke="#F2C261" stroke-miterlimit="10"/>
<path d="M100.301 77.82C101.125 79.25 101.125 80.95 100.301 82.37C97.396 87.31 93.4965 91.4 88.7225 94.52C82.0792 98.84 74.059 101.04 64.893 101.04C57.3049 101.04 50.3199 99.22 44.159 95.65C43.9681 96.11 43.5861 96.48 43.0434 96.63L34.4905 99L25.9979 101.64C24.7718 102.02 23.6964 100.94 24.0783 99.73L26.7417 91.28L29.1236 82.77C29.2643 82.25 29.6362 81.87 30.0784 81.67C29.8673 81.32 29.6663 80.98 29.4653 80.62C25.9075 74.24 24.0984 66.9 24.0984 58.81C24.0984 50.72 25.9075 43.35 29.4653 36.94C31.2442 33.74 33.3749 30.87 35.8172 28.34C38.2695 25.82 41.0434 23.66 44.1389 21.87C50.3199 18.29 57.2949 16.47 64.883 16.47C74.1293 16.47 82.1697 18.68 88.7828 23.05C93.5467 26.21 97.4362 30.35 100.331 35.37C101.155 36.8 101.155 38.5 100.331 39.93C99.4966 41.36 98.0091 42.2 96.3608 42.2H95.8583C94.1397 42.2 92.5718 41.23 91.7577 39.67C89.4763 35.29 86.2602 31.74 82.1898 29.1C77.446 26.03 71.6167 24.47 64.893 24.47C58.9432 24.47 53.5159 25.88 48.7621 28.64C44.0183 31.4 40.2394 35.43 37.5358 40.63C34.8322 45.83 33.4553 51.94 33.4553 58.81C33.4553 65.68 34.8322 71.78 37.5358 76.93C40.2394 82.08 44.0183 86.1 48.7621 88.86C53.5159 91.62 58.9432 93.02 64.893 93.02C71.6268 93.02 77.4359 91.48 82.1898 88.45C86.2602 85.86 89.4763 82.35 91.7577 78.03C92.5718 76.49 94.1397 75.53 95.8282 75.53H96.3508C98.0091 75.53 99.4865 76.38 100.311 77.81L100.301 77.82Z" stroke="#F2C261" stroke-miterlimit="10"/>
</svg>
