<svg width="194" height="69" viewBox="0 0 194 69" fill="none" xmlns="http://www.w3.org/2000/svg">
<path d="M44.424 54.368H16.488L11.688 68H0.264L24.168 1.184H36.84L60.744 68H49.224L44.424 54.368ZM41.352 45.44L30.504 14.432L19.56 45.44H41.352ZM106.85 33.728C110.434 34.368 113.474 36.256 115.97 39.392C118.466 42.528 119.714 46.08 119.714 50.048C119.714 53.44 118.818 56.512 117.026 59.264C115.298 61.952 112.77 64.096 109.442 65.696C106.114 67.232 102.242 68 97.8255 68H71.1375V1.27999H96.5775C101.122 1.27999 105.026 2.048 108.29 3.584C111.554 5.12 114.018 7.2 115.682 9.824C117.346 12.384 118.177 15.264 118.177 18.464C118.177 22.304 117.154 25.504 115.106 28.064C113.058 30.624 110.306 32.512 106.85 33.728ZM82.0815 29.312H95.6175C99.2015 29.312 101.986 28.512 103.97 26.912C106.018 25.248 107.042 22.88 107.042 19.808C107.042 16.8 106.018 14.464 103.97 12.8C101.986 11.072 99.2015 10.208 95.6175 10.208H82.0815V29.312ZM96.8655 59.072C100.578 59.072 103.49 58.176 105.602 56.384C107.714 54.592 108.77 52.096 108.77 48.896C108.77 45.632 107.65 43.04 105.41 41.12C103.17 39.2 100.194 38.24 96.4815 38.24H82.0815V59.072H96.8655ZM127.958 34.496C127.958 27.968 129.462 22.112 132.47 16.928C135.542 11.744 139.67 7.712 144.854 4.832C150.102 1.88799 155.83 0.415995 162.038 0.415995C169.142 0.415995 175.446 2.17599 180.95 5.696C186.518 9.152 190.55 14.08 193.046 20.48H179.894C178.166 16.96 175.766 14.336 172.694 12.608C169.622 10.88 166.07 10.016 162.038 10.016C157.622 10.016 153.686 11.008 150.23 12.992C146.774 14.976 144.054 17.824 142.07 21.536C140.15 25.248 139.19 29.568 139.19 34.496C139.19 39.424 140.15 43.744 142.07 47.456C144.054 51.168 146.774 54.048 150.23 56.096C153.686 58.08 157.622 59.072 162.038 59.072C166.07 59.072 169.622 58.208 172.694 56.48C175.766 54.752 178.166 52.128 179.894 48.608H193.046C190.55 55.008 186.518 59.936 180.95 63.392C175.446 66.848 169.142 68.576 162.038 68.576C155.766 68.576 150.038 67.136 144.854 64.256C139.67 61.312 135.542 57.248 132.47 52.064C129.462 46.88 127.958 41.024 127.958 34.496Z" fill="#A66002"/>
</svg>
